<svg id="SvgjsSvg1001" width="288" height="288" xmlns="http://www.w3.org/2000/svg" version="1.1" xmlns:xlink="http://www.w3.org/1999/xlink" xmlns:svgjs="http://svgjs.com/svgjs"><defs id="SvgjsDefs1002"></defs><g id="SvgjsG1008" transform="matrix(0.9167,0,0,0.9167,11.995223593979773,11.995200000000011)"><svg xmlns="http://www.w3.org/2000/svg" width="288" height="288" enable-background="new 0 0 512.013 512.013" viewBox="0 0 512.013 512.013"><path d="m63.64 512.013 143.745-143.745 48.177 143.522 142.242-397.582-397.582 142.243 143.522 48.178-143.744 143.745zm28.164-256.464 256.388-91.728-91.727 256.388-36.051-107.396-156.774 156.774-21.213-21.213 156.774-156.774z" fill="#ff6a00" class="color000 svgShape"></path><path d="m451.013 183.574h30v84.853h-30z" transform="rotate(-45 466.008 226.103)" fill="#ff6a00" class="color000 svgShape"></path><path d="m271.013 3.574h30v84.853h-30z" transform="rotate(-45 286.026 46.056)" fill="#ff6a00" class="color000 svgShape"></path><path d="m423.587 31h84.853v30h-84.853z" transform="rotate(-45 466.037 46.089)" fill="#ff6a00" class="color000 svgShape"></path><path d="M361.013 0h30v60h-30zM451.124 121h60.89v30h-60.89z" fill="#ff6a00" class="color000 svgShape"></path></svg></g></svg>